<?xml version="1.0" encoding="UTF-8"?>
<svg xmlns="http://www.w3.org/2000/svg" xmlns:xlink="http://www.w3.org/1999/xlink" width="326.01pt" height="187.9pt" viewBox="0 0 326.01 187.9">
<defs>
<g>
<g id="glyph-0-0">
<path d="M 6.734375 -1.609375 L 6.484375 -1.609375 C 6.421875 -1.34375 6.390625 -1.125 6.296875 -0.890625 C 6.25 -0.71875 6.21875 -0.640625 5.640625 -0.640625 L 4.84375 -0.640625 C 4.984375 -1.203125 5.28125 -1.671875 5.734375 -2.328125 C 6.203125 -3.046875 6.609375 -3.734375 6.609375 -4.515625 C 6.609375 -5.890625 5.265625 -7 3.59375 -7 C 1.875 -7 0.5625 -5.875 0.5625 -4.515625 C 0.5625 -3.734375 0.96875 -3.046875 1.4375 -2.328125 C 1.875 -1.671875 2.1875 -1.203125 2.3125 -0.640625 L 1.515625 -0.640625 C 0.9375 -0.640625 0.921875 -0.71875 0.859375 -0.875 C 0.78125 -1.109375 0.734375 -1.359375 0.6875 -1.609375 L 0.4375 -1.609375 L 0.765625 0 L 2.359375 0 C 2.578125 0 2.609375 0 2.609375 -0.203125 C 2.609375 -0.90625 2.296875 -1.78125 2.0625 -2.421875 C 1.859375 -2.984375 1.578125 -3.78125 1.578125 -4.515625 C 1.578125 -6.109375 2.671875 -6.78125 3.578125 -6.78125 C 4.53125 -6.78125 5.578125 -6.078125 5.578125 -4.515625 C 5.578125 -3.78125 5.3125 -3.015625 5.03125 -2.203125 C 4.875 -1.78125 4.5625 -0.890625 4.5625 -0.203125 C 4.5625 0 4.59375 0 4.8125 0 L 6.40625 0 Z M 6.734375 -1.609375 "/>
</g>
<g id="glyph-0-1">
<path d="M 3.296875 2.390625 C 3.296875 2.359375 3.296875 2.328125 3.125 2.171875 C 1.875 0.921875 1.5625 -0.96875 1.5625 -2.484375 C 1.5625 -4.21875 1.9375 -5.9375 3.15625 -7.1875 C 3.296875 -7.296875 3.296875 -7.328125 3.296875 -7.359375 C 3.296875 -7.421875 3.25 -7.453125 3.1875 -7.453125 C 3.09375 -7.453125 2.203125 -6.78125 1.609375 -5.515625 C 1.109375 -4.421875 0.984375 -3.3125 0.984375 -2.484375 C 0.984375 -1.703125 1.09375 -0.5 1.640625 0.609375 C 2.234375 1.84375 3.09375 2.484375 3.1875 2.484375 C 3.25 2.484375 3.296875 2.453125 3.296875 2.390625 Z M 3.296875 2.390625 "/>
</g>
<g id="glyph-0-2">
<path d="M 2.875 -2.484375 C 2.875 -3.265625 2.765625 -4.46875 2.21875 -5.578125 C 1.625 -6.8125 0.765625 -7.453125 0.671875 -7.453125 C 0.609375 -7.453125 0.5625 -7.40625 0.5625 -7.359375 C 0.5625 -7.328125 0.5625 -7.296875 0.75 -7.125 C 1.734375 -6.140625 2.296875 -4.5625 2.296875 -2.484375 C 2.296875 -0.78125 1.921875 0.96875 0.703125 2.21875 C 0.5625 2.328125 0.5625 2.359375 0.5625 2.390625 C 0.5625 2.4375 0.609375 2.484375 0.671875 2.484375 C 0.765625 2.484375 1.65625 1.8125 2.25 0.546875 C 2.75 -0.546875 2.875 -1.65625 2.875 -2.484375 Z M 2.875 -2.484375 "/>
</g>
<g id="glyph-0-3">
<path d="M 6.828125 -3.25 C 6.96875 -3.25 7.171875 -3.25 7.171875 -3.453125 C 7.171875 -3.640625 6.96875 -3.640625 6.84375 -3.640625 L 0.890625 -3.640625 C 0.75 -3.640625 0.5625 -3.640625 0.5625 -3.453125 C 0.5625 -3.25 0.75 -3.25 0.890625 -3.25 Z M 6.84375 -1.328125 C 6.96875 -1.328125 7.171875 -1.328125 7.171875 -1.515625 C 7.171875 -1.71875 6.96875 -1.71875 6.828125 -1.71875 L 0.890625 -1.71875 C 0.75 -1.71875 0.5625 -1.71875 0.5625 -1.515625 C 0.5625 -1.328125 0.75 -1.328125 0.890625 -1.328125 Z M 6.84375 -1.328125 "/>
</g>
<g id="glyph-1-0">
<path d="M 3.3125 -3 C 3.375 -3.265625 3.609375 -4.171875 4.296875 -4.171875 C 4.359375 -4.171875 4.59375 -4.171875 4.796875 -4.046875 C 4.515625 -4 4.328125 -3.75 4.328125 -3.515625 C 4.328125 -3.34375 4.4375 -3.15625 4.703125 -3.15625 C 4.921875 -3.15625 5.234375 -3.34375 5.234375 -3.734375 C 5.234375 -4.25 4.65625 -4.390625 4.3125 -4.390625 C 3.734375 -4.390625 3.390625 -3.859375 3.265625 -3.640625 C 3.015625 -4.296875 2.484375 -4.390625 2.203125 -4.390625 C 1.15625 -4.390625 0.59375 -3.109375 0.59375 -2.859375 C 0.59375 -2.765625 0.703125 -2.765625 0.71875 -2.765625 C 0.796875 -2.765625 0.828125 -2.78125 0.84375 -2.875 C 1.1875 -3.921875 1.84375 -4.171875 2.171875 -4.171875 C 2.359375 -4.171875 2.71875 -4.078125 2.71875 -3.515625 C 2.71875 -3.203125 2.546875 -2.53125 2.171875 -1.140625 C 2.015625 -0.53125 1.671875 -0.109375 1.234375 -0.109375 C 1.171875 -0.109375 0.9375 -0.109375 0.734375 -0.234375 C 0.984375 -0.28125 1.203125 -0.5 1.203125 -0.78125 C 1.203125 -1.046875 0.984375 -1.125 0.828125 -1.125 C 0.53125 -1.125 0.28125 -0.859375 0.28125 -0.546875 C 0.28125 -0.09375 0.78125 0.109375 1.21875 0.109375 C 1.875 0.109375 2.234375 -0.59375 2.265625 -0.640625 C 2.390625 -0.28125 2.75 0.109375 3.34375 0.109375 C 4.359375 0.109375 4.921875 -1.171875 4.921875 -1.421875 C 4.921875 -1.515625 4.84375 -1.515625 4.8125 -1.515625 C 4.71875 -1.515625 4.703125 -1.484375 4.6875 -1.40625 C 4.359375 -0.34375 3.671875 -0.109375 3.359375 -0.109375 C 2.96875 -0.109375 2.8125 -0.421875 2.8125 -0.765625 C 2.8125 -0.984375 2.875 -1.203125 2.984375 -1.640625 Z M 3.3125 -3 "/>
</g>
<g id="glyph-1-1">
<path d="M 4.25 -6.03125 C 4.3125 -6.3125 4.359375 -6.375 4.46875 -6.40625 C 4.5625 -6.421875 4.890625 -6.421875 5.09375 -6.421875 C 6.109375 -6.421875 6.546875 -6.375 6.546875 -5.609375 C 6.546875 -5.453125 6.515625 -5.0625 6.46875 -4.8125 C 6.453125 -4.765625 6.4375 -4.65625 6.4375 -4.625 C 6.4375 -4.5625 6.46875 -4.484375 6.5625 -4.484375 C 6.671875 -4.484375 6.6875 -4.578125 6.703125 -4.71875 L 6.96875 -6.453125 C 6.984375 -6.484375 7 -6.59375 7 -6.625 C 7 -6.734375 6.890625 -6.734375 6.734375 -6.734375 L 1.21875 -6.734375 C 0.96875 -6.734375 0.96875 -6.71875 0.890625 -6.53125 L 0.296875 -4.78125 C 0.28125 -4.765625 0.234375 -4.625 0.234375 -4.59375 C 0.234375 -4.546875 0.28125 -4.484375 0.359375 -4.484375 C 0.453125 -4.484375 0.46875 -4.546875 0.53125 -4.703125 C 1.0625 -6.234375 1.328125 -6.421875 2.796875 -6.421875 L 3.1875 -6.421875 C 3.453125 -6.421875 3.453125 -6.375 3.453125 -6.296875 C 3.453125 -6.234375 3.421875 -6.125 3.421875 -6.09375 L 2.09375 -0.78125 C 2 -0.421875 1.96875 -0.3125 0.90625 -0.3125 C 0.546875 -0.3125 0.484375 -0.3125 0.484375 -0.125 C 0.484375 0 0.59375 0 0.65625 0 C 0.921875 0 1.203125 -0.015625 1.46875 -0.015625 C 1.75 -0.015625 2.03125 -0.03125 2.3125 -0.03125 C 2.59375 -0.03125 2.875 -0.015625 3.140625 -0.015625 C 3.421875 -0.015625 3.734375 0 4 0 C 4.109375 0 4.21875 0 4.21875 -0.203125 C 4.21875 -0.3125 4.140625 -0.3125 3.890625 -0.3125 C 3.640625 -0.3125 3.515625 -0.3125 3.25 -0.328125 C 2.96875 -0.359375 2.875 -0.390625 2.875 -0.546875 C 2.875 -0.5625 2.875 -0.609375 2.921875 -0.75 Z M 4.25 -6.03125 "/>
</g>
<g id="glyph-2-0">
<path d="M 2.328125 -4.421875 C 2.328125 -4.609375 2.3125 -4.609375 2.125 -4.609375 C 1.671875 -4.171875 1.046875 -4.171875 0.765625 -4.171875 L 0.765625 -3.921875 C 0.921875 -3.921875 1.390625 -3.921875 1.765625 -4.109375 L 1.765625 -0.5625 C 1.765625 -0.34375 1.765625 -0.25 1.078125 -0.25 L 0.8125 -0.25 L 0.8125 0 C 0.9375 0 1.78125 -0.03125 2.046875 -0.03125 C 2.265625 -0.03125 3.140625 0 3.28125 0 L 3.28125 -0.25 L 3.03125 -0.25 C 2.328125 -0.25 2.328125 -0.34375 2.328125 -0.5625 Z M 2.328125 -4.421875 "/>
</g>
<g id="glyph-2-1">
<path d="M 5.265625 -1.171875 L 5.03125 -1.171875 C 5.015625 -1.140625 4.953125 -0.828125 4.90625 -0.65625 C 4.859375 -0.546875 4.84375 -0.5 4.40625 -0.5 L 3.8125 -0.5 C 3.9375 -0.890625 4.140625 -1.15625 4.53125 -1.671875 C 4.875 -2.140625 5.171875 -2.59375 5.171875 -3.15625 C 5.171875 -4.09375 4.171875 -4.890625 2.828125 -4.890625 C 1.5 -4.890625 0.484375 -4.09375 0.484375 -3.15625 C 0.484375 -2.546875 0.828125 -2.09375 1.3125 -1.4375 C 1.515625 -1.171875 1.734375 -0.859375 1.84375 -0.5 L 1.25 -0.5 C 0.828125 -0.5 0.8125 -0.546875 0.765625 -0.625 C 0.71875 -0.765625 0.625 -1.15625 0.625 -1.171875 L 0.390625 -1.171875 L 0.640625 0 L 1.890625 0 C 2.046875 0 2.09375 0 2.09375 -0.15625 C 2.09375 -0.65625 1.828125 -1.25 1.6875 -1.578125 C 1.421875 -2.203125 1.234375 -2.65625 1.234375 -3.15625 C 1.234375 -4.15625 2.015625 -4.6875 2.828125 -4.6875 C 3.65625 -4.6875 4.421875 -4.140625 4.421875 -3.15625 C 4.421875 -2.640625 4.21875 -2.15625 3.984375 -1.625 C 3.828125 -1.265625 3.5625 -0.65625 3.5625 -0.15625 C 3.5625 0 3.609375 0 3.765625 0 L 5.015625 0 Z M 5.265625 -1.171875 "/>
</g>
<g id="glyph-2-2">
<path d="M 3.515625 -1.265625 L 3.28125 -1.265625 C 3.25 -1.109375 3.1875 -0.703125 3.09375 -0.625 C 3.03125 -0.59375 2.5 -0.59375 2.40625 -0.59375 L 1.125 -0.59375 C 1.859375 -1.234375 2.09375 -1.4375 2.515625 -1.765625 C 3.03125 -2.171875 3.515625 -2.59375 3.515625 -3.265625 C 3.515625 -4.109375 2.78125 -4.609375 1.890625 -4.609375 C 1.015625 -4.609375 0.4375 -4.015625 0.4375 -3.375 C 0.4375 -3.015625 0.734375 -2.984375 0.8125 -2.984375 C 0.96875 -2.984375 1.171875 -3.09375 1.171875 -3.34375 C 1.171875 -3.484375 1.125 -3.71875 0.765625 -3.71875 C 0.984375 -4.21875 1.453125 -4.359375 1.78125 -4.359375 C 2.46875 -4.359375 2.84375 -3.828125 2.84375 -3.265625 C 2.84375 -2.65625 2.40625 -2.171875 2.1875 -1.921875 L 0.5 -0.265625 C 0.4375 -0.203125 0.4375 -0.1875 0.4375 0 L 3.296875 0 Z M 3.515625 -1.265625 "/>
</g>
<g id="glyph-2-3">
<path d="M 1.890625 -2.328125 C 2.4375 -2.328125 2.828125 -1.953125 2.828125 -1.203125 C 2.828125 -0.34375 2.328125 -0.078125 1.921875 -0.078125 C 1.640625 -0.078125 1.03125 -0.15625 0.75 -0.5625 C 1.078125 -0.578125 1.140625 -0.8125 1.140625 -0.953125 C 1.140625 -1.1875 0.984375 -1.34375 0.765625 -1.34375 C 0.5625 -1.34375 0.375 -1.21875 0.375 -0.9375 C 0.375 -0.28125 1.09375 0.140625 1.9375 0.140625 C 2.90625 0.140625 3.578125 -0.5 3.578125 -1.203125 C 3.578125 -1.75 3.125 -2.28125 2.359375 -2.453125 C 3.09375 -2.71875 3.359375 -3.234375 3.359375 -3.65625 C 3.359375 -4.203125 2.71875 -4.609375 1.953125 -4.609375 C 1.1875 -4.609375 0.59375 -4.234375 0.59375 -3.6875 C 0.59375 -3.453125 0.75 -3.3125 0.953125 -3.3125 C 1.171875 -3.3125 1.3125 -3.484375 1.3125 -3.671875 C 1.3125 -3.875 1.171875 -4.015625 0.953125 -4.03125 C 1.203125 -4.34375 1.671875 -4.421875 1.9375 -4.421875 C 2.25 -4.421875 2.6875 -4.265625 2.6875 -3.65625 C 2.6875 -3.359375 2.59375 -3.046875 2.40625 -2.828125 C 2.171875 -2.5625 1.984375 -2.546875 1.640625 -2.53125 C 1.453125 -2.515625 1.453125 -2.515625 1.40625 -2.515625 C 1.390625 -2.515625 1.34375 -2.5 1.34375 -2.421875 C 1.34375 -2.328125 1.40625 -2.328125 1.515625 -2.328125 Z M 1.890625 -2.328125 "/>
</g>
<g id="glyph-3-0">
<path d="M 2.65625 -3.125 L 3.015625 -3.125 L 4.515625 -0.8125 C 4.609375 -0.65625 4.84375 -0.265625 4.953125 -0.125 C 5.03125 0 5.0625 0 5.28125 0 L 6.65625 0 C 6.84375 0 6.984375 0 6.984375 -0.171875 C 6.984375 -0.265625 6.921875 -0.328125 6.84375 -0.34375 C 6.46875 -0.421875 5.984375 -1.078125 5.75 -1.40625 C 5.671875 -1.5 5.171875 -2.15625 4.515625 -3.234375 C 5.390625 -3.390625 6.25 -3.765625 6.25 -4.953125 C 6.25 -6.328125 4.796875 -6.8125 3.625 -6.8125 L 0.5 -6.8125 C 0.3125 -6.8125 0.15625 -6.8125 0.15625 -6.625 C 0.15625 -6.453125 0.34375 -6.453125 0.421875 -6.453125 C 1 -6.453125 1.046875 -6.390625 1.046875 -5.890625 L 1.046875 -0.921875 C 1.046875 -0.421875 1 -0.34375 0.421875 -0.34375 C 0.34375 -0.34375 0.15625 -0.34375 0.15625 -0.171875 C 0.15625 0 0.3125 0 0.5 0 L 3.21875 0 C 3.40625 0 3.546875 0 3.546875 -0.171875 C 3.546875 -0.34375 3.375 -0.34375 3.265625 -0.34375 C 2.703125 -0.34375 2.65625 -0.421875 2.65625 -0.921875 Z M 4.578125 -3.609375 C 4.859375 -3.96875 4.890625 -4.5 4.890625 -4.9375 C 4.890625 -5.421875 4.828125 -5.9375 4.515625 -6.34375 C 4.921875 -6.265625 5.90625 -5.953125 5.90625 -4.953125 C 5.90625 -4.296875 5.609375 -3.796875 4.578125 -3.609375 Z M 2.65625 -5.921875 C 2.65625 -6.125 2.65625 -6.453125 3.28125 -6.453125 C 4.125 -6.453125 4.546875 -6.109375 4.546875 -4.9375 C 4.546875 -3.65625 4.234375 -3.46875 2.65625 -3.46875 Z M 1.3125 -0.34375 C 1.390625 -0.53125 1.390625 -0.8125 1.390625 -0.890625 L 1.390625 -5.90625 C 1.390625 -6.015625 1.390625 -6.28125 1.3125 -6.453125 L 2.4375 -6.453125 C 2.3125 -6.296875 2.3125 -6.109375 2.3125 -5.953125 L 2.3125 -0.890625 C 2.3125 -0.796875 2.3125 -0.53125 2.390625 -0.34375 Z M 3.421875 -3.125 C 3.5 -3.125 3.53125 -3.140625 3.625 -3.140625 C 3.765625 -3.140625 3.984375 -3.15625 4.140625 -3.1875 C 4.28125 -2.9375 5.359375 -1.171875 6.1875 -0.34375 L 5.21875 -0.34375 Z M 3.421875 -3.125 "/>
</g>
<g id="glyph-4-0">
<path d="M 5.3125 0 L 5.3125 -0.3125 C 4.796875 -0.3125 4.546875 -0.3125 4.546875 -0.609375 L 4.546875 -2.5 C 4.546875 -3.359375 4.546875 -3.671875 4.234375 -4.03125 C 4.09375 -4.1875 3.765625 -4.390625 3.1875 -4.390625 C 2.359375 -4.390625 1.921875 -3.796875 1.765625 -3.4375 L 1.75 -3.4375 L 1.75 -6.890625 L 0.3125 -6.78125 L 0.3125 -6.484375 C 1.015625 -6.484375 1.09375 -6.40625 1.09375 -5.921875 L 1.09375 -0.75 C 1.09375 -0.3125 0.984375 -0.3125 0.3125 -0.3125 L 0.3125 0 L 1.4375 -0.03125 L 2.546875 0 L 2.546875 -0.3125 C 1.890625 -0.3125 1.78125 -0.3125 1.78125 -0.75 L 1.78125 -2.578125 C 1.78125 -3.625 2.484375 -4.171875 3.125 -4.171875 C 3.75 -4.171875 3.859375 -3.640625 3.859375 -3.078125 L 3.859375 -0.75 C 3.859375 -0.3125 3.75 -0.3125 3.078125 -0.3125 L 3.078125 0 L 4.203125 -0.03125 Z M 5.3125 0 "/>
</g>
<g id="glyph-4-1">
<path d="M 4.796875 -0.890625 L 4.796875 -1.4375 L 4.546875 -1.4375 L 4.546875 -0.890625 C 4.546875 -0.3125 4.296875 -0.25 4.1875 -0.25 C 3.859375 -0.25 3.828125 -0.703125 3.828125 -0.75 L 3.828125 -2.734375 C 3.828125 -3.15625 3.828125 -3.53125 3.46875 -3.90625 C 3.078125 -4.296875 2.578125 -4.453125 2.109375 -4.453125 C 1.296875 -4.453125 0.609375 -3.984375 0.609375 -3.328125 C 0.609375 -3.03125 0.8125 -2.859375 1.0625 -2.859375 C 1.34375 -2.859375 1.515625 -3.0625 1.515625 -3.3125 C 1.515625 -3.4375 1.46875 -3.765625 1.015625 -3.78125 C 1.28125 -4.125 1.765625 -4.234375 2.09375 -4.234375 C 2.578125 -4.234375 3.140625 -3.84375 3.140625 -2.96875 L 3.140625 -2.59375 C 2.640625 -2.5625 1.9375 -2.53125 1.3125 -2.234375 C 0.5625 -1.890625 0.3125 -1.375 0.3125 -0.9375 C 0.3125 -0.140625 1.28125 0.109375 1.90625 0.109375 C 2.5625 0.109375 3.015625 -0.28125 3.203125 -0.75 C 3.25 -0.359375 3.515625 0.0625 3.984375 0.0625 C 4.1875 0.0625 4.796875 -0.078125 4.796875 -0.890625 Z M 3.140625 -1.390625 C 3.140625 -0.453125 2.421875 -0.109375 1.984375 -0.109375 C 1.484375 -0.109375 1.078125 -0.453125 1.078125 -0.953125 C 1.078125 -1.5 1.5 -2.328125 3.140625 -2.390625 Z M 3.140625 -1.390625 "/>
</g>
<g id="glyph-4-2">
<path d="M 2.53125 0 L 2.53125 -0.3125 C 1.875 -0.3125 1.765625 -0.3125 1.765625 -0.75 L 1.765625 -6.890625 L 0.328125 -6.78125 L 0.328125 -6.484375 C 1.03125 -6.484375 1.109375 -6.40625 1.109375 -5.921875 L 1.109375 -0.75 C 1.109375 -0.3125 1 -0.3125 0.328125 -0.3125 L 0.328125 0 L 1.4375 -0.03125 Z M 2.53125 0 "/>
</g>
<g id="glyph-4-3">
<path d="M 3.546875 -6.3125 C 3.546875 -6.671875 3.1875 -7 2.65625 -7 C 1.953125 -7 1.109375 -6.484375 1.109375 -5.421875 L 1.109375 -4.28125 L 0.328125 -4.28125 L 0.328125 -3.96875 L 1.109375 -3.96875 L 1.109375 -0.75 C 1.109375 -0.3125 1 -0.3125 0.34375 -0.3125 L 0.34375 0 L 1.46875 -0.03125 C 1.875 -0.03125 2.328125 -0.03125 2.734375 0 L 2.734375 -0.3125 L 2.53125 -0.3125 C 1.78125 -0.3125 1.765625 -0.421875 1.765625 -0.78125 L 1.765625 -3.96875 L 2.90625 -3.96875 L 2.90625 -4.28125 L 1.734375 -4.28125 L 1.734375 -5.4375 C 1.734375 -6.3125 2.21875 -6.78125 2.65625 -6.78125 C 2.6875 -6.78125 2.828125 -6.78125 2.984375 -6.71875 C 2.859375 -6.671875 2.6875 -6.546875 2.6875 -6.296875 C 2.6875 -6.078125 2.84375 -5.875 3.109375 -5.875 C 3.40625 -5.875 3.546875 -6.078125 3.546875 -6.3125 Z M 3.546875 -6.3125 "/>
</g>
<g id="glyph-4-4">
<path d="M 2.75 -1.859375 L 2.75 -2.4375 L 0.109375 -2.4375 L 0.109375 -1.859375 Z M 2.75 -1.859375 "/>
</g>
<g id="glyph-4-5">
<path d="M 5.171875 -2.140625 C 5.171875 -3.40625 4.21875 -4.390625 3.09375 -4.390625 C 2.328125 -4.390625 1.90625 -3.953125 1.703125 -3.734375 L 1.703125 -4.390625 L 0.28125 -4.28125 L 0.28125 -3.96875 C 0.984375 -3.96875 1.046875 -3.921875 1.046875 -3.484375 L 1.046875 1.171875 C 1.046875 1.625 0.9375 1.625 0.28125 1.625 L 0.28125 1.921875 L 1.390625 1.890625 L 2.515625 1.921875 L 2.515625 1.625 C 1.84375 1.625 1.734375 1.625 1.734375 1.171875 L 1.734375 -0.59375 C 1.78125 -0.421875 2.203125 0.109375 2.96875 0.109375 C 4.140625 0.109375 5.171875 -0.859375 5.171875 -2.140625 Z M 4.359375 -2.140625 C 4.359375 -0.9375 3.65625 -0.109375 2.921875 -0.109375 C 2.53125 -0.109375 2.140625 -0.3125 1.875 -0.71875 C 1.734375 -0.921875 1.734375 -0.9375 1.734375 -1.140625 L 1.734375 -3.34375 C 2.03125 -3.859375 2.515625 -4.140625 3.015625 -4.140625 C 3.75 -4.140625 4.359375 -3.265625 4.359375 -2.140625 Z M 4.359375 -2.140625 "/>
</g>
<g id="glyph-4-6">
<path d="M 5.3125 0 L 5.3125 -0.3125 C 4.796875 -0.3125 4.546875 -0.3125 4.546875 -0.609375 L 4.546875 -2.5 C 4.546875 -3.359375 4.546875 -3.671875 4.234375 -4.03125 C 4.09375 -4.1875 3.765625 -4.390625 3.1875 -4.390625 C 2.46875 -4.390625 2 -3.96875 1.71875 -3.34375 L 1.71875 -4.390625 L 0.3125 -4.28125 L 0.3125 -3.96875 C 1.015625 -3.96875 1.09375 -3.90625 1.09375 -3.421875 L 1.09375 -0.75 C 1.09375 -0.3125 0.984375 -0.3125 0.3125 -0.3125 L 0.3125 0 L 1.4375 -0.03125 L 2.546875 0 L 2.546875 -0.3125 C 1.890625 -0.3125 1.78125 -0.3125 1.78125 -0.75 L 1.78125 -2.578125 C 1.78125 -3.625 2.484375 -4.171875 3.125 -4.171875 C 3.75 -4.171875 3.859375 -3.640625 3.859375 -3.078125 L 3.859375 -0.75 C 3.859375 -0.3125 3.75 -0.3125 3.078125 -0.3125 L 3.078125 0 L 4.203125 -0.03125 Z M 5.3125 0 "/>
</g>
<g id="glyph-4-7">
<path d="M 4.125 -1.1875 C 4.125 -1.28125 4.046875 -1.296875 4 -1.296875 C 3.90625 -1.296875 3.890625 -1.25 3.859375 -1.15625 C 3.515625 -0.140625 2.625 -0.140625 2.53125 -0.140625 C 2.03125 -0.140625 1.625 -0.4375 1.40625 -0.8125 C 1.109375 -1.28125 1.109375 -1.9375 1.109375 -2.296875 L 3.875 -2.296875 C 4.09375 -2.296875 4.125 -2.296875 4.125 -2.5 C 4.125 -3.484375 3.59375 -4.453125 2.34375 -4.453125 C 1.1875 -4.453125 0.28125 -3.421875 0.28125 -2.1875 C 0.28125 -0.859375 1.328125 0.109375 2.46875 0.109375 C 3.671875 0.109375 4.125 -1 4.125 -1.1875 Z M 3.46875 -2.5 L 1.109375 -2.5 C 1.171875 -3.984375 2 -4.234375 2.34375 -4.234375 C 3.375 -4.234375 3.46875 -2.890625 3.46875 -2.5 Z M 3.46875 -2.5 "/>
</g>
<g id="glyph-4-8">
<path d="M 6.984375 -3.96875 L 6.984375 -4.28125 C 6.765625 -4.265625 6.484375 -4.25 6.265625 -4.25 L 5.34375 -4.28125 L 5.34375 -3.96875 C 5.6875 -3.96875 5.90625 -3.78125 5.90625 -3.5 C 5.90625 -3.4375 5.90625 -3.421875 5.859375 -3.296875 L 4.953125 -0.75 L 3.96875 -3.515625 C 3.9375 -3.640625 3.921875 -3.65625 3.921875 -3.703125 C 3.921875 -3.96875 4.3125 -3.96875 4.515625 -3.96875 L 4.515625 -4.28125 L 3.484375 -4.25 C 3.1875 -4.25 2.890625 -4.265625 2.59375 -4.28125 L 2.59375 -3.96875 C 2.96875 -3.96875 3.125 -3.953125 3.21875 -3.828125 C 3.265625 -3.765625 3.375 -3.46875 3.453125 -3.28125 L 2.59375 -0.875 L 1.65625 -3.53125 C 1.59375 -3.640625 1.59375 -3.671875 1.59375 -3.703125 C 1.59375 -3.96875 1.984375 -3.96875 2.1875 -3.96875 L 2.1875 -4.28125 L 1.109375 -4.25 L 0.171875 -4.28125 L 0.171875 -3.96875 C 0.671875 -3.96875 0.796875 -3.9375 0.921875 -3.625 L 2.171875 -0.109375 C 2.21875 0.03125 2.25 0.109375 2.375 0.109375 C 2.5 0.109375 2.53125 0.046875 2.578125 -0.09375 L 3.578125 -2.90625 L 4.59375 -0.078125 C 4.625 0.03125 4.65625 0.109375 4.796875 0.109375 C 4.921875 0.109375 4.953125 0.015625 4.984375 -0.078125 L 6.15625 -3.34375 C 6.328125 -3.828125 6.640625 -3.96875 6.984375 -3.96875 Z M 6.984375 -3.96875 "/>
</g>
<g id="glyph-4-9">
<path d="M 5.234375 0 L 5.234375 -0.3125 C 4.546875 -0.3125 4.46875 -0.375 4.46875 -0.859375 L 4.46875 -6.890625 L 3.03125 -6.78125 L 3.03125 -6.484375 C 3.734375 -6.484375 3.8125 -6.40625 3.8125 -5.921875 L 3.8125 -3.78125 C 3.515625 -4.140625 3.09375 -4.390625 2.546875 -4.390625 C 1.375 -4.390625 0.34375 -3.421875 0.34375 -2.140625 C 0.34375 -0.875 1.3125 0.109375 2.4375 0.109375 C 3.078125 0.109375 3.53125 -0.234375 3.78125 -0.546875 L 3.78125 0.109375 Z M 3.78125 -1.171875 C 3.78125 -1 3.78125 -0.96875 3.671875 -0.8125 C 3.375 -0.328125 2.921875 -0.109375 2.5 -0.109375 C 2.046875 -0.109375 1.6875 -0.375 1.453125 -0.75 C 1.1875 -1.15625 1.15625 -1.71875 1.15625 -2.125 C 1.15625 -2.5 1.1875 -3.09375 1.46875 -3.53125 C 1.671875 -3.84375 2.0625 -4.171875 2.59375 -4.171875 C 2.9375 -4.171875 3.359375 -4.03125 3.671875 -3.578125 C 3.78125 -3.40625 3.78125 -3.390625 3.78125 -3.203125 Z M 3.78125 -1.171875 "/>
</g>
<g id="glyph-4-10">
<path d="M 4.8125 -4.015625 C 4.8125 -4.1875 4.703125 -4.5 4.3125 -4.5 C 4.109375 -4.5 3.671875 -4.4375 3.265625 -4.03125 C 2.84375 -4.359375 2.421875 -4.390625 2.203125 -4.390625 C 1.28125 -4.390625 0.59375 -3.703125 0.59375 -2.9375 C 0.59375 -2.5 0.8125 -2.125 1.0625 -1.921875 C 0.9375 -1.765625 0.75 -1.4375 0.75 -1.09375 C 0.75 -0.78125 0.890625 -0.40625 1.1875 -0.203125 C 0.59375 -0.046875 0.28125 0.390625 0.28125 0.78125 C 0.28125 1.5 1.265625 2.046875 2.46875 2.046875 C 3.640625 2.046875 4.6875 1.546875 4.6875 0.765625 C 4.6875 0.421875 4.546875 -0.09375 4.03125 -0.375 C 3.515625 -0.640625 2.9375 -0.640625 2.328125 -0.640625 C 2.078125 -0.640625 1.65625 -0.640625 1.578125 -0.65625 C 1.265625 -0.703125 1.046875 -1 1.046875 -1.328125 C 1.046875 -1.359375 1.046875 -1.59375 1.21875 -1.78125 C 1.609375 -1.515625 2.015625 -1.484375 2.203125 -1.484375 C 3.125 -1.484375 3.8125 -2.171875 3.8125 -2.9375 C 3.8125 -3.296875 3.65625 -3.671875 3.40625 -3.890625 C 3.765625 -4.234375 4.125 -4.28125 4.296875 -4.28125 C 4.296875 -4.28125 4.375 -4.28125 4.40625 -4.265625 C 4.296875 -4.234375 4.25 -4.125 4.25 -4 C 4.25 -3.828125 4.375 -3.71875 4.53125 -3.71875 C 4.625 -3.71875 4.8125 -3.78125 4.8125 -4.015625 Z M 3.078125 -2.9375 C 3.078125 -2.671875 3.0625 -2.359375 2.90625 -2.109375 C 2.828125 -1.984375 2.609375 -1.703125 2.203125 -1.703125 C 1.34375 -1.703125 1.34375 -2.703125 1.34375 -2.9375 C 1.34375 -3.203125 1.34375 -3.515625 1.5 -3.765625 C 1.578125 -3.890625 1.8125 -4.15625 2.203125 -4.15625 C 3.078125 -4.15625 3.078125 -3.171875 3.078125 -2.9375 Z M 4.15625 0.78125 C 4.15625 1.328125 3.453125 1.8125 2.484375 1.8125 C 1.484375 1.8125 0.796875 1.3125 0.796875 0.78125 C 0.796875 0.328125 1.171875 -0.046875 1.609375 -0.0625 L 2.203125 -0.0625 C 3.046875 -0.0625 4.15625 -0.0625 4.15625 0.78125 Z M 4.15625 0.78125 "/>
</g>
</g>
<clipPath id="clip-0">
<path clip-rule="nonzero" d="M 11 0.234375 L 241 0.234375 L 241 162 L 11 162 Z M 11 0.234375 "/>
</clipPath>
</defs>
<path fill-rule="nonzero" fill="rgb(91.999817%, 91.999817%, 100%)" fill-opacity="1" d="M 22.910156 150.722656 L 206.609375 150.722656 L 229.214844 68.765625 L 150.085938 6.589844 L 42.695312 29.199219 Z M 22.910156 150.722656 "/>
<g clip-path="url(#clip-0)">
<path fill="none" stroke-width="0.79701" stroke-linecap="butt" stroke-linejoin="miter" stroke="rgb(0%, 0%, 75%)" stroke-opacity="1" stroke-miterlimit="10" d="M -0.0014221 -0.00129872 L 184.255639 -0.00129872 L 206.929754 82.204613 L 127.560556 144.569204 L 19.843816 121.891171 Z M -0.0014221 -0.00129872 " transform="matrix(0.996972, 0, 0, -0.996972, 22.911574, 150.721361)"/>
</g>
<g fill="rgb(0%, 0%, 0%)" fill-opacity="1">
<use xlink:href="#glyph-0-0" x="67.36879" y="43.897316"/>
</g>
<path fill-rule="nonzero" fill="rgb(0%, 0%, 0%)" fill-opacity="1" d="M 118.554688 97.027344 C 118.554688 95.710938 117.488281 94.640625 116.171875 94.640625 C 114.855469 94.640625 113.789062 95.710938 113.789062 97.027344 C 113.789062 98.34375 114.855469 99.410156 116.171875 99.410156 C 117.488281 99.410156 118.554688 98.34375 118.554688 97.027344 Z M 118.554688 97.027344 "/>
<g fill="rgb(0%, 0%, 0%)" fill-opacity="1">
<use xlink:href="#glyph-1-0" x="103.523927" y="103.818113"/>
</g>
<g fill="rgb(0%, 0%, 0%)" fill-opacity="1">
<use xlink:href="#glyph-2-0" x="109.200619" y="105.307969"/>
</g>
<path fill="none" stroke-width="0.3985" stroke-linecap="butt" stroke-linejoin="miter" stroke="rgb(64.99939%, 64.99939%, 64.99939%)" stroke-opacity="1" stroke-miterlimit="10" d="M 93.543506 53.857071 L 109.756654 53.857071 " transform="matrix(0.996972, 0, 0, -0.996972, 22.911574, 150.721361)"/>
<path fill-rule="nonzero" fill="rgb(64.99939%, 64.99939%, 64.99939%)" fill-opacity="1" stroke-width="0.3985" stroke-linecap="butt" stroke-linejoin="miter" stroke="rgb(64.99939%, 64.99939%, 64.99939%)" stroke-opacity="1" stroke-miterlimit="10" d="M 4.214882 -0.00167877 L 0.641563 1.346152 L 1.816997 -0.00167877 L 0.641563 -1.345591 Z M 4.214882 -0.00167877 " transform="matrix(0.996972, 0, 0, -0.996972, 130.622098, 97.02567)"/>
<path fill="none" stroke-width="0.3985" stroke-linecap="butt" stroke-linejoin="miter" stroke="rgb(64.99939%, 64.99939%, 64.99939%)" stroke-opacity="1" stroke-miterlimit="10" d="M 93.543506 53.857071 L 105.007902 65.321467 " transform="matrix(0.996972, 0, 0, -0.996972, 22.911574, 150.721361)"/>
<path fill-rule="nonzero" fill="rgb(64.99939%, 64.99939%, 64.99939%)" fill-opacity="1" stroke-width="0.3985" stroke-linecap="butt" stroke-linejoin="miter" stroke="rgb(64.99939%, 64.99939%, 64.99939%)" stroke-opacity="1" stroke-miterlimit="10" d="M 4.215216 0.00200345 L 0.643977 1.34572 L 1.81869 -0.000767105 L 0.643977 -1.347255 Z M 4.215216 0.00200345 " transform="matrix(0.704959, -0.704959, -0.704959, -0.704959, 126.389232, 86.808905)"/>
<path fill="none" stroke-width="0.3985" stroke-linecap="butt" stroke-linejoin="miter" stroke="rgb(64.99939%, 64.99939%, 64.99939%)" stroke-opacity="1" stroke-miterlimit="10" d="M 93.543506 53.857071 L 93.543506 70.070219 " transform="matrix(0.996972, 0, 0, -0.996972, 22.911574, 150.721361)"/>
<path fill-rule="nonzero" fill="rgb(64.99939%, 64.99939%, 64.99939%)" fill-opacity="1" stroke-width="0.3985" stroke-linecap="butt" stroke-linejoin="miter" stroke="rgb(64.99939%, 64.99939%, 64.99939%)" stroke-opacity="1" stroke-miterlimit="10" d="M 4.213797 0.000573931 L 0.644397 1.344486 L 1.815912 0.000573931 L 0.644397 -1.347257 Z M 4.213797 0.000573931 " transform="matrix(0, -0.996972, -0.996972, 0, 116.172447, 82.576039)"/>
<path fill="none" stroke-width="0.3985" stroke-linecap="butt" stroke-linejoin="miter" stroke="rgb(64.99939%, 64.99939%, 64.99939%)" stroke-opacity="1" stroke-miterlimit="10" d="M 93.543506 53.857071 L 82.083028 65.321467 " transform="matrix(0.996972, 0, 0, -0.996972, 22.911574, 150.721361)"/>
<path fill-rule="nonzero" fill="rgb(64.99939%, 64.99939%, 64.99939%)" fill-opacity="1" stroke-width="0.3985" stroke-linecap="butt" stroke-linejoin="miter" stroke="rgb(64.99939%, 64.99939%, 64.99939%)" stroke-opacity="1" stroke-miterlimit="10" d="M 4.216049 -0.00117056 L 0.642039 1.345317 L 1.816753 -0.00117056 L 0.64481 -1.344887 Z M 4.216049 -0.00117056 " transform="matrix(-0.704959, -0.704959, -0.704959, 0.704959, 105.955693, 86.808905)"/>
<path fill="none" stroke-width="0.3985" stroke-linecap="butt" stroke-linejoin="miter" stroke="rgb(64.99939%, 64.99939%, 64.99939%)" stroke-opacity="1" stroke-miterlimit="10" d="M 93.543506 53.857071 L 77.334276 53.857071 " transform="matrix(0.996972, 0, 0, -0.996972, 22.911574, 150.721361)"/>
<path fill-rule="nonzero" fill="rgb(64.99939%, 64.99939%, 64.99939%)" fill-opacity="1" stroke-width="0.3985" stroke-linecap="butt" stroke-linejoin="miter" stroke="rgb(64.99939%, 64.99939%, 64.99939%)" stroke-opacity="1" stroke-miterlimit="10" d="M 4.21605 0.00167877 L 0.642731 1.345591 L 1.818165 0.00167877 L 0.642731 -1.346152 Z M 4.21605 0.00167877 " transform="matrix(-0.996972, 0, 0, 0.996972, 101.722817, 97.02567)"/>
<path fill="none" stroke-width="0.3985" stroke-linecap="butt" stroke-linejoin="miter" stroke="rgb(64.99939%, 64.99939%, 64.99939%)" stroke-opacity="1" stroke-miterlimit="10" d="M 93.543506 53.857071 L 82.083028 42.396593 " transform="matrix(0.996972, 0, 0, -0.996972, 22.911574, 150.721361)"/>
<path fill-rule="nonzero" fill="rgb(64.99939%, 64.99939%, 64.99939%)" fill-opacity="1" stroke-width="0.3985" stroke-linecap="butt" stroke-linejoin="miter" stroke="rgb(64.99939%, 64.99939%, 64.99939%)" stroke-opacity="1" stroke-miterlimit="10" d="M 4.215653 0.000774176 L 0.644413 1.344491 L 1.816356 0.000774176 L 0.641643 -1.345713 Z M 4.215653 0.000774176 " transform="matrix(-0.704959, 0.704959, 0.704959, 0.704959, 105.955693, 107.242435)"/>
<path fill="none" stroke-width="0.3985" stroke-linecap="butt" stroke-linejoin="miter" stroke="rgb(64.99939%, 64.99939%, 64.99939%)" stroke-opacity="1" stroke-miterlimit="10" d="M 93.543506 53.857071 L 93.543506 37.647841 " transform="matrix(0.996972, 0, 0, -0.996972, 22.911574, 150.721361)"/>
<path fill-rule="nonzero" fill="rgb(64.99939%, 64.99939%, 64.99939%)" fill-opacity="1" stroke-width="0.3985" stroke-linecap="butt" stroke-linejoin="miter" stroke="rgb(64.99939%, 64.99939%, 64.99939%)" stroke-opacity="1" stroke-miterlimit="10" d="M 4.213216 -0.000573931 L 0.643816 1.347257 L 1.81925 -0.000573931 L 0.643816 -1.344486 Z M 4.213216 -0.000573931 " transform="matrix(0, 0.996972, 0.996972, 0, 116.172447, 111.475321)"/>
<path fill="none" stroke-width="0.3985" stroke-linecap="butt" stroke-linejoin="miter" stroke="rgb(64.99939%, 64.99939%, 64.99939%)" stroke-opacity="1" stroke-miterlimit="10" d="M 93.543506 53.857071 L 105.007902 42.396593 " transform="matrix(0.996972, 0, 0, -0.996972, 22.911574, 150.721361)"/>
<path fill-rule="nonzero" fill="rgb(64.99939%, 64.99939%, 64.99939%)" fill-opacity="1" stroke-width="0.3985" stroke-linecap="butt" stroke-linejoin="miter" stroke="rgb(64.99939%, 64.99939%, 64.99939%)" stroke-opacity="1" stroke-miterlimit="10" d="M 4.21482 -0.00160706 L 0.643581 1.347651 L 1.818294 0.00116349 L 0.643581 -1.345324 Z M 4.21482 -0.00160706 " transform="matrix(0.704959, 0.704959, 0.704959, -0.704959, 126.389232, 107.242435)"/>
<g fill="rgb(0%, 0%, 0%)" fill-opacity="1">
<use xlink:href="#glyph-1-1" x="88.821594" y="135.434962"/>
</g>
<g fill="rgb(0%, 0%, 0%)" fill-opacity="1">
<use xlink:href="#glyph-2-1" x="94.625898" y="136.924818"/>
</g>
<g fill="rgb(0%, 0%, 0%)" fill-opacity="1">
<use xlink:href="#glyph-0-1" x="100.792332" y="135.434962"/>
</g>
<g fill="rgb(0%, 0%, 0%)" fill-opacity="1">
<use xlink:href="#glyph-1-0" x="104.654973" y="135.434962"/>
</g>
<g fill="rgb(0%, 0%, 0%)" fill-opacity="1">
<use xlink:href="#glyph-2-0" x="110.331664" y="136.924818"/>
</g>
<g fill="rgb(0%, 0%, 0%)" fill-opacity="1">
<use xlink:href="#glyph-0-2" x="114.787503" y="135.434962"/>
</g>
<g fill="rgb(0%, 0%, 0%)" fill-opacity="1">
<use xlink:href="#glyph-0-3" x="121.392601" y="135.434962"/>
</g>
<g fill="rgb(0%, 0%, 0%)" fill-opacity="1">
<use xlink:href="#glyph-3-0" x="131.893337" y="135.434962"/>
</g>
<g fill="rgb(0%, 0%, 0%)" fill-opacity="1">
<use xlink:href="#glyph-2-2" x="139.066813" y="131.830548"/>
</g>
<path fill-rule="nonzero" fill="rgb(0%, 0%, 0%)" fill-opacity="1" d="M 220.296875 109.742188 C 220.296875 108.425781 219.230469 107.359375 217.914062 107.359375 C 216.59375 107.359375 215.527344 108.425781 215.527344 109.742188 C 215.527344 111.058594 216.59375 112.125 217.914062 112.125 C 219.230469 112.125 220.296875 111.058594 220.296875 109.742188 Z M 220.296875 109.742188 "/>
<g fill="rgb(0%, 0%, 0%)" fill-opacity="1">
<use xlink:href="#glyph-1-0" x="220.428092" y="116.535046"/>
</g>
<g fill="rgb(0%, 0%, 0%)" fill-opacity="1">
<use xlink:href="#glyph-2-2" x="226.104784" y="118.024901"/>
</g>
<path fill="none" stroke-width="0.79701" stroke-linecap="butt" stroke-linejoin="miter" stroke="rgb(75%, 0%, 0%)" stroke-opacity="1" stroke-miterlimit="10" d="M 195.594656 41.103616 L 188.585153 67.253097 " transform="matrix(0.996972, 0, 0, -0.996972, 22.911574, 150.721361)"/>
<path fill-rule="nonzero" fill="rgb(75%, 0%, 0%)" fill-opacity="1" stroke-width="0.79701" stroke-linecap="butt" stroke-linejoin="miter" stroke="rgb(75%, 0%, 0%)" stroke-opacity="1" stroke-miterlimit="10" d="M 5.439922 -0.000842398 L 1.285423 1.570747 L 2.665633 0.000220813 L 1.287706 -1.569514 Z M 5.439922 -0.000842398 " transform="matrix(-0.258036, -0.962986, -0.962986, 0.258036, 211.563043, 86.047378)"/>
<path fill="none" stroke-width="0.79701" stroke-linecap="butt" stroke-linejoin="miter" stroke="rgb(75%, 0%, 0%)" stroke-opacity="1" stroke-miterlimit="10" d="M 195.594656 41.103616 L 172.148673 54.636776 " transform="matrix(0.996972, 0, 0, -0.996972, 22.911574, 150.721361)"/>
<path fill-rule="nonzero" fill="rgb(75%, 0%, 0%)" fill-opacity="1" stroke-width="0.79701" stroke-linecap="butt" stroke-linejoin="miter" stroke="rgb(75%, 0%, 0%)" stroke-opacity="1" stroke-miterlimit="10" d="M 5.441791 0.00127994 L 1.28731 1.570577 L 2.664805 -0.000366445 L 1.286198 -1.569948 Z M 5.441791 0.00127994 " transform="matrix(-0.863388, -0.498466, -0.498466, 0.863388, 196.667766, 97.477069)"/>
<path fill="none" stroke-width="0.79701" stroke-linecap="butt" stroke-linejoin="miter" stroke="rgb(75%, 0%, 0%)" stroke-opacity="1" stroke-miterlimit="10" d="M 195.594656 41.103616 L 169.445175 34.098032 " transform="matrix(0.996972, 0, 0, -0.996972, 22.911574, 150.721361)"/>
<path fill-rule="nonzero" fill="rgb(75%, 0%, 0%)" fill-opacity="1" stroke-width="0.79701" stroke-linecap="butt" stroke-linejoin="miter" stroke="rgb(75%, 0%, 0%)" stroke-opacity="1" stroke-miterlimit="10" d="M 5.441861 0.000149219 L 1.287362 1.571739 L 2.662773 -0.00155811 L 1.284846 -1.571293 Z M 5.441861 0.000149219 " transform="matrix(-0.962986, 0.258036, 0.258036, 0.962986, 194.216958, 116.091752)"/>
<path fill="none" stroke-width="0.79701" stroke-linecap="butt" stroke-linejoin="miter" stroke="rgb(75%, 0%, 0%)" stroke-opacity="1" stroke-miterlimit="10" d="M 195.594656 41.103616 L 182.057578 17.657633 " transform="matrix(0.996972, 0, 0, -0.996972, 22.911574, 150.721361)"/>
<path fill-rule="nonzero" fill="rgb(75%, 0%, 0%)" fill-opacity="1" stroke-width="0.79701" stroke-linecap="butt" stroke-linejoin="miter" stroke="rgb(75%, 0%, 0%)" stroke-opacity="1" stroke-miterlimit="10" d="M 5.440489 -0.00136136 L 1.289401 1.569895 L 2.664937 0.0023446 L 1.288289 -1.57063 Z M 5.440489 -0.00136136 " transform="matrix(-0.498466, 0.863388, 0.863388, 0.498466, 205.646669, 130.987019)"/>
<g fill="rgb(0%, 0%, 0%)" fill-opacity="1">
<use xlink:href="#glyph-1-1" x="229.900178" y="93.856295"/>
</g>
<g fill="rgb(0%, 0%, 0%)" fill-opacity="1">
<use xlink:href="#glyph-2-1" x="235.704482" y="95.34615"/>
</g>
<g fill="rgb(0%, 0%, 0%)" fill-opacity="1">
<use xlink:href="#glyph-0-1" x="241.870917" y="93.856295"/>
</g>
<g fill="rgb(0%, 0%, 0%)" fill-opacity="1">
<use xlink:href="#glyph-1-0" x="245.733557" y="93.856295"/>
</g>
<g fill="rgb(0%, 0%, 0%)" fill-opacity="1">
<use xlink:href="#glyph-2-2" x="251.410248" y="95.34615"/>
</g>
<g fill="rgb(0%, 0%, 0%)" fill-opacity="1">
<use xlink:href="#glyph-0-2" x="255.866087" y="93.856295"/>
</g>
<g fill="rgb(0%, 0%, 0%)" fill-opacity="1">
<use xlink:href="#glyph-0-3" x="262.471185" y="93.856295"/>
</g>
<g fill="rgb(0%, 0%, 0%)" fill-opacity="1">
<use xlink:href="#glyph-4-0" x="272.971922" y="93.856295"/>
<use xlink:href="#glyph-4-1" x="278.494379" y="93.856295"/>
<use xlink:href="#glyph-4-2" x="283.460618" y="93.856295"/>
<use xlink:href="#glyph-4-3" x="286.221847" y="93.856295"/>
<use xlink:href="#glyph-4-4" x="289.261185" y="93.856295"/>
<use xlink:href="#glyph-4-5" x="292.5687" y="93.856295"/>
<use xlink:href="#glyph-4-2" x="298.091158" y="93.856295"/>
<use xlink:href="#glyph-4-1" x="300.852387" y="93.856295"/>
<use xlink:href="#glyph-4-6" x="305.818626" y="93.856295"/>
<use xlink:href="#glyph-4-7" x="311.341084" y="93.856295"/>
</g>
<path fill-rule="nonzero" fill="rgb(0%, 0%, 0%)" fill-opacity="1" d="M 25.296875 150.722656 C 25.296875 149.40625 24.226562 148.335938 22.910156 148.335938 C 21.59375 148.335938 20.527344 149.40625 20.527344 150.722656 C 20.527344 152.039062 21.59375 153.105469 22.910156 153.105469 C 24.226562 153.105469 25.296875 152.039062 25.296875 150.722656 Z M 25.296875 150.722656 "/>
<g fill="rgb(0%, 0%, 0%)" fill-opacity="1">
<use xlink:href="#glyph-1-0" x="9.26979" y="158.507049"/>
</g>
<g fill="rgb(0%, 0%, 0%)" fill-opacity="1">
<use xlink:href="#glyph-2-3" x="14.946482" y="159.996904"/>
</g>
<path fill="none" stroke-width="0.79701" stroke-linecap="butt" stroke-linejoin="miter" stroke="rgb(75%, 0%, 0%)" stroke-opacity="1" stroke-miterlimit="10" d="M -0.0014221 -0.00129872 L 44.081258 -0.00129872 " transform="matrix(0.996972, 0, 0, -0.996972, 22.911574, 150.721361)"/>
<path fill-rule="nonzero" fill="rgb(75%, 0%, 0%)" fill-opacity="1" stroke-width="0.79701" stroke-linecap="butt" stroke-linejoin="miter" stroke="rgb(75%, 0%, 0%)" stroke-opacity="1" stroke-miterlimit="10" d="M 5.440635 -0.00129872 L 1.287436 1.569864 L 2.662694 -0.00129872 L 1.287436 -1.572462 Z M 5.440635 -0.00129872 " transform="matrix(0.996972, 0, 0, -0.996972, 64.400055, 150.721361)"/>
<path fill="none" stroke-width="0.79701" stroke-linecap="butt" stroke-linejoin="miter" stroke="rgb(75%, 0%, 0%)" stroke-opacity="1" stroke-miterlimit="10" d="M -0.0014221 -0.00129872 L 14.546528 42.600335 " transform="matrix(0.996972, 0, 0, -0.996972, 22.911574, 150.721361)"/>
<path fill-rule="nonzero" fill="rgb(75%, 0%, 0%)" fill-opacity="1" stroke-width="0.79701" stroke-linecap="butt" stroke-linejoin="miter" stroke="rgb(75%, 0%, 0%)" stroke-opacity="1" stroke-miterlimit="10" d="M 5.438659 0.000363221 L 1.287395 1.572263 L 2.664323 0.00121304 L 1.287988 -1.570073 Z M 5.438659 0.000363221 " transform="matrix(0.322142, -0.943455, -0.943455, -0.322142, 36.619417, 110.57656)"/>
<g fill="rgb(0%, 0%, 0%)" fill-opacity="1">
<use xlink:href="#glyph-1-1" x="41.970019" y="175.812955"/>
</g>
<g fill="rgb(0%, 0%, 0%)" fill-opacity="1">
<use xlink:href="#glyph-2-1" x="47.774323" y="177.302811"/>
</g>
<g fill="rgb(0%, 0%, 0%)" fill-opacity="1">
<use xlink:href="#glyph-0-1" x="53.940757" y="175.812955"/>
</g>
<g fill="rgb(0%, 0%, 0%)" fill-opacity="1">
<use xlink:href="#glyph-1-0" x="57.803397" y="175.812955"/>
</g>
<g fill="rgb(0%, 0%, 0%)" fill-opacity="1">
<use xlink:href="#glyph-2-3" x="63.480089" y="177.302811"/>
</g>
<g fill="rgb(0%, 0%, 0%)" fill-opacity="1">
<use xlink:href="#glyph-0-2" x="67.935928" y="175.812955"/>
</g>
<g fill="rgb(0%, 0%, 0%)" fill-opacity="1">
<use xlink:href="#glyph-0-3" x="74.541026" y="175.812955"/>
</g>
<g fill="rgb(0%, 0%, 0%)" fill-opacity="1">
<use xlink:href="#glyph-4-8" x="85.041762" y="175.812955"/>
</g>
<g fill="rgb(0%, 0%, 0%)" fill-opacity="1">
<use xlink:href="#glyph-4-7" x="91.944834" y="175.812955"/>
<use xlink:href="#glyph-4-9" x="96.354855" y="175.812955"/>
<use xlink:href="#glyph-4-10" x="101.877312" y="175.812955"/>
<use xlink:href="#glyph-4-7" x="106.843551" y="175.812955"/>
</g>
</svg>
